<svg width="18" height="18" fill="none" xmlns="http://www.w3.org/2000/svg"><path d="m13.996 11.1226-1.8381-.2099c-.4415-.0507-.8757.1013-1.1869.4125l-1.33155 1.3316c-2.04801-1.0421-3.72694-2.71384-4.76904-4.7691l1.33881-1.33882c.31118-.31118.46315-.74539.41249-1.18683l-.20986-1.82369c-.08685-.73091-.70197-1.28091-1.44012-1.28091H3.71976c-.81776 0-1.49801.68026-1.44736 1.49802.38355 6.18025 5.32628 11.11573 11.4993 11.49933.8177.0506 1.498-.6296 1.498-1.4474v-1.2519c.0072-.731-.5428-1.3461-1.2737-1.4329Z" fill="#212121"/></svg>