<svg width="70" height="70" fill="none" xmlns="http://www.w3.org/2000/svg"><g clip-path="url(#a)"><path d="M32.6496 32.7351h2.3321v10.4945h-2.3321V32.7351ZM41.978 37.3993h2.3321v5.8303H41.978v-5.8303ZM23.3211 40.8975h2.3321v2.3321h-2.3321v-2.3321ZM16.3248 39.7314h2.3321v3.4981h-2.3321v-3.4981Z" fill="#2196F3"/><path d="M3.49817 61.8865H59.4689c1.9318 0 3.4981-1.5663 3.4981-3.4982v-4.6642c0-1.9318-1.5663-3.4982-3.4981-3.4982h-1.1661v-29.079l6.6234-6.2744c1.5373.7578 3.398.2977 4.404-1.0909 1.0067-1.3881.8655-3.2995-.3336-4.52476-1.1991-1.22527-3.1065-1.40804-4.5168-.43272-1.4097.97589-1.9108 2.82578-1.1865 4.37958l-4.9905 4.7308v-2.6902c0-1.9319-1.5663-3.4982-3.4982-3.4982H8.16239c-1.93185 0-3.49817 1.5663-3.49817 3.4982v34.9816H3.49817C1.56632 50.2259 0 51.7923 0 53.7241v4.6642c0 1.9319 1.56632 3.4982 3.49817 3.4982ZM66.4652 10.58c.6439 0 1.166.5221 1.166 1.1661 0 .6439-.5221 1.166-1.166 1.166-.644 0-1.1661-.5221-1.1661-1.166 0-.644.5221-1.1661 1.1661-1.1661ZM6.99634 15.2443c0-.644.5221-1.1661 1.16605-1.1661H54.8046c.644 0 1.1661.5221 1.1661 1.1661v4.8971l-2.3321 2.2159v-4.7809c0-.644-.5221-1.1661-1.1661-1.1661h-41.978c-.64395 0-1.16605.5221-1.16605 1.1661v29.1514c0 .6439.5221 1.166 1.16605 1.166h41.978c.644 0 1.1661-.5221 1.1661-1.166V25.5651l2.3321-2.2097v26.8705H6.99634V15.2443ZM17.4908 30.403c-1.5777-.0046-2.9629 1.0465-3.3825 2.5673-.4197 1.5207.23 3.1337 1.5868 3.9388 1.3562.8051 3.0842.603 4.2178-.4942l4.0533 2.0338c.4709.2357 1.0419.1252 1.3921-.2682l8.6162-9.6934 8.4698 6.3467c.4544.3405 1.0886.304 1.5009-.086l7.3613-6.973v17.7869H11.6606V18.7424h39.6459v5.8195l-8.2501 7.8128-8.541-6.4031c-.4851-.3632-1.1678-.2949-1.5709.1578l-8.7346 9.8277-3.2653-1.6329c.0239-.1401.0387-.2813.0444-.423 0-1.9319-1.5663-3.4982-3.4982-3.4982Zm1.1661 3.4982c0 .6439-.5221 1.166-1.1661 1.166-.6439 0-1.166-.5221-1.166-1.166 0-.644.5221-1.1661 1.166-1.1661.644 0 1.1661.5221 1.1661 1.1661Zm6.9963 18.6569h11.6606v1.166c0 .644-.5221 1.1661-1.1661 1.1661h-9.3284c-.644 0-1.1661-.5221-1.1661-1.1661v-1.166Zm-23.32109 1.166c0-.6439.52211-1.166 1.16606-1.166H23.3211v1.166c0 1.9319 1.5663 3.4982 3.4982 3.4982h9.3284c1.9319 0 3.4982-1.5663 3.4982-3.4982v-1.166h19.823c.6439 0 1.166.5221 1.166 1.166v4.6642c0 .644-.5221 1.1661-1.166 1.1661H3.49817c-.64395 0-1.16606-.5221-1.16606-1.1661v-4.6642Z" fill="#212121"/></g><defs><clipPath id="a"><path fill="#fff" d="M0 0h70v70H0z"/></clipPath></defs></svg>