<svg width="41" height="47" fill="none" xmlns="http://www.w3.org/2000/svg"><path fill-rule="evenodd" clip-rule="evenodd" d="m6 0 7.0078 6.63413L0 6.62646V38.8137h34V26.507l7 6.6268V0H6Zm27.6924 25.7283L13.8226 6.91796h19.8698V25.7283Zm-6.1693 8.3772H5.38008V12.4579H6.9453v20.1818h20.5778v1.4658Zm-16.9142 8.9936-.81788 1.6846-.81788-1.6846h-.68603l1.19385 2.2461v1.3086h.62014v-1.3086l1.1914-2.2461h-.6836Zm1.0278 3.5547.2881-.8276h1.377l.2905.8276h.6445l-1.3452-3.5547h-.5542l-1.3428 3.5547h.6421Zm.9766-2.8003.5151 1.4746h-1.0303l.5152-1.4746Zm3.2568 1.3892c-.0895.1367-.1343.2872-.1343.4516 0 .2995.105.5428.315.73.2116.1856.4931.2783.8447.2783s.6543-.0952.9082-.2856l.2002.2368h.6885l-.5225-.6177c.2051-.2799.3076-.6388.3076-1.0766h-.5151c0 .2392-.0496.4565-.1489.6518l-.6861-.8105.2417-.1758c.1709-.1237.2938-.2474.3687-.3711.0749-.1253.1123-.262.1123-.4101 0-.2247-.083-.4126-.249-.564-.1644-.153-.376-.2295-.6348-.2295-.2865 0-.5143.0814-.6836.2441-.1693.1612-.2539.3809-.2539.6592 0 .1139.0269.2319.0806.354.0553.1221.1522.2702.2905.4444-.2637.1888-.4403.3523-.5298.4907Zm1.604.7861c-.1741.1335-.3613.2002-.5615.2002-.1774 0-.319-.0513-.4248-.1538s-.1587-.236-.1587-.4004c0-.1904.0977-.3597.293-.5078l.0757-.0537.7763.9155Zm-.6372-1.5747c-.1676-.2067-.2515-.3784-.2515-.5151 0-.1189.0342-.2173.1026-.2954.0683-.0782.1603-.1172.2759-.1172.1074 0 .1961.0333.2661.1001.07.0651.105.144.105.2368 0 .14-.0505.2547-.1514.3442l-.0757.0611-.271.1855Zm5.7861 1.9312c.2442-.2133.3842-.5095.42-.8887h-.6153c-.0325.2539-.1098.4354-.2319.5444-.1221.1091-.3044.1636-.5469.1636-.2653 0-.4671-.1009-.6054-.3027-.1368-.2019-.2051-.4948-.2051-.879v-.3149c.0032-.3792.0765-.6665.2197-.8618.1449-.1969.3516-.2954.6201-.2954.2311 0 .4061.0569.5249.1709.1205.1123.1953.2962.2246.5517h.6153c-.0391-.389-.1783-.6901-.4175-.9033-.2393-.2132-.555-.3198-.9473-.3198-.2913 0-.5485.0692-.7715.2075-.2213.1384-.3914.3353-.5102.5908-.1188.2556-.1782.551-.1782.8863v.332c.0048.3271.0659.6144.1831.8618.1172.2474.2832.4387.498.5737.2165.1335.4663.2002.7495.2002.4053 0 .73-.1058.9741-.3173Zm3.6304-.4981c.1205-.2637.1807-.5697.1807-.918v-.1977c-.0016-.3467-.0635-.6502-.1856-.9107-.122-.262-.2954-.4622-.52-.6005-.223-.14-.4793-.21-.769-.21s-.5469.0708-.7715.2124c-.223.14-.3963.3426-.52.6079-.1221.2653-.1831.5713-.1831.918v.2002c.0016.3401.0634.6404.1855.9008.1237.2605.2979.4615.5225.6031.2262.1399.4834.2099.7715.2099.2913 0 .5485-.07.7714-.2099.2246-.1416.3972-.3434.5176-.6055Zm-.6616-2.0093c.1497.21.2246.5119.2246.9058v.1855c0 .4004-.0741.7048-.2222.9131-.1464.2084-.3564.3125-.6298.3125-.2702 0-.4818-.1066-.6348-.3198-.1514-.2132-.2271-.5151-.2271-.9058v-.205c.0033-.3825.0798-.6779.2295-.8863.1514-.2099.3605-.3149.6275-.3149.2734 0 .4842.105.6323.3149Z" fill="#AFB1B8"/></svg>