<svg width="40" height="52" fill="none" xmlns="http://www.w3.org/2000/svg"><path fill-rule="evenodd" clip-rule="evenodd" d="M17.1136 2.93452h-.1366c-.2099-.01271-.4199-.0178-.6299-.02289h-.4553c-.3972 0-.802.01018-1.2042.03052-.0303-.00221-.0607-.00221-.091 0-3.6444.20648-7.21489 1.11736-10.51611 2.68277l-.43259.20852V27.9746l1.01189-.3433c.88794-.3052 1.83405-.5798 2.81306-.8341 2.64645-.6794 5.36385-1.0405 8.09515-1.0756v2.909c-.3618.0026-.7134.0128-1.065.0306h-.0835c-2.102.1153-4.1878.4355-6.22821.9561-2.58413.647-5.07696 1.6184-7.419684 2.8913V4.11189C3.20469 2.69275 5.82533 1.62687 8.55557.945963 10.9527.327052 13.4169.00930695 15.8918 0h.4275c.511.0127146 1.0094.0356008 1.4774.0712015 1.233.0865745 2.4561.2814265 3.6554.5823265V3.51685c-1.1647-.27134-2.3489-.4499-3.5416-.53401-.0242-.00205-.0484-.00412-.0726-.00618-.2468-.02105-.4939-.04214-.7243-.04214Zm5.0392 2.92686c.6349.04832 1.2927.07121 1.958.07121 2.6017-.00952 5.1923-.34176 7.7131-.9892 2.5829-.64943 5.0747-1.62161 7.4172-2.89383V29.9402c-2.4344 1.4183-5.0558 2.4841-7.7865 3.1659-2.3975.6166-4.8615.9334-7.3362.9435-1.8751.0151-3.7447-.2053-5.5654-.6561V5.32229c.43.09917.8727.19072 1.323.267.7387.12461 1.5179.21615 2.2768.27209Zm14.1943.21615-1.0119.34075c-.931.31278-1.8695.5925-2.8131.8417-2.7472.70598-5.5707 1.06812-8.4063 1.0782-.6602 0-1.2673-.0178-1.8542-.05594l-.807-.05341V31.0057l.6931.061c.6426.056 1.3054.0839 1.9732.0839 2.2335-.0094 4.4572-.2973 6.6203-.8569 1.7811-.4468 3.514-1.0694 5.1733-1.8589l.4326-.2085V6.07753Z" fill="#AFB1B8"/><path d="M2.73713 42.2124c-.14547-.1509-.32084-.2694-.51477-.3478-.19392-.0784-.40207-.115-.61095-.1074-.22262-.003-.4436.0385-.650143.1221-.189366.0754-.3615.1887-.505945.3331-.142871.1448-.25403.318-.326334.5086-.0793088.1997-.1188455.4131-.1163675.6281v3.794c-.00904767.2673.0419677.5333.1492535.7781.089559.1944.218851.3677.379459.5086.15162.1277.329645.2197.521127.2696.18448.0518.37509.0783.56665.0788.2113.0021.42042-.0431.6122-.1322.18964-.083.36146-.2022.50594-.351.14089-.1474.25327-.3198.3314-.5086.08108-.1913.1224-.3972.12142-.6052v-.4246h-.99165v.3382c.00295.1155-.01682.2304-.05818.3382-.0323.0807-.08147.1536-.1442.2136-.06143.0496-.13188.0868-.20743.1093-.06697.0223-.13691.0343-.20744.0356-.08854.0103-.17821-.003-.25995-.0388-.08174-.0357-.15264-.0925-.20552-.1646-.09348-.1525-.139305-.3296-.131546-.5086v-3.5372c-.006152-.1961.035536-.3908.121426-.567.05148-.0801.12432-.144.2102-.1845.08588-.0405.18135-.0559.27551-.0444.08547-.003.17041.0148.24751.052.07711.0372.14409.0927.19519.1616.11097.1457.16899.3252.16443.5086v.328h.98153v-.3865c.002-.227-.03922-.4523-.12142-.6637-.07326-.1988-.18602-.3805-.3314-.534ZM8.62892 42.1691c-.31621-.267-.7153-.4145-1.12826-.417-.20198.0008-.40228.037-.59196.1068-.19257.069-.37029.1743-.52365.3102-.16429.1477-.29537.3289-.38452.5315-.0999.2317-.14907.4824-.14419.7349v3.6389c-.00684.256.04239.5103.14419.7451.08975.1956.22099.3692.38452.5085.1516.1408.32963.2497.52365.3205.18968.0698.38998.1059.59196.1068.20203-.0004.40241-.0366.59196-.1068.19733-.0718.37933-.1805.5363-.3205.15818-.1419.28562-.315.3744-.5085.1018-.2348.15103-.4891.14419-.7451v-3.6389c.00488-.2525-.04429-.5032-.14419-.7349-.08827-.2005-.21557-.3812-.3744-.5315Zm-.46294 4.9053c.00836.097-.00503.1946-.03918.2857-.03415.0911-.08819.1733-.15814.2407-.13098.1098-.29615.17-.46673.17-.17058 0-.33576-.0602-.46674-.17-.06995-.0674-.12399-.1496-.15814-.2407-.03415-.0911-.04753-.1887-.03918-.2857v-3.6389c-.00835-.097.00503-.1946.03918-.2857.03415-.0911.08819-.1734.15814-.2407.13098-.1098.29616-.17.46674-.17s.33575.0602.46673.17c.06995.0673.12399.1496.15814.2407.03415.0911.04754.1887.03918.2857v3.6389ZM16.3673 48.6994v-6.8887h-.9537l-1.2522 3.6465h-.0177l-1.2624-3.6465h-.9436v6.8887h.9841v-4.1907h.0177l.9638 2.9625h.4908l.9714-2.9625h.0177v4.1907h.9841ZM21.9581 42.2937c-.1516-.17-.3428-.2994-.5566-.3764-.2303-.0749-.4713-.111-.7134-.1068H19.226v6.8888h.9815v-2.6904h.5059c.3063.0139.611-.0509.8854-.1882.2232-.1239.4093-.3057.5389-.5264.1135-.1832.19-.3872.2251-.6001.0386-.2592.0564-.5212.0531-.7832.0096-.3308-.0227-.6615-.0961-.9841-.0655-.2384-.1899-.4563-.3617-.6332Zm-.506 2.1004c-.0042.1247-.0353.2471-.0911.3586-.0561.1059-.1448.1907-.2529.2415-.1454.0651-.304.0947-.463.0865h-.4477v-2.342h.5059c.1524-.0075.3042.0222.4427.0864.1015.0583.1821.1473.2302.2543.0537.121.0829.2516.086.384v.4577c0 .1602.0101.3255 0 .473h-.0101ZM26.6077 41.8107h-.8045l-1.5178 6.8887h.9815l.2884-1.48h1.3382l.2884 1.48h.9816l-1.5558-6.8887Zm-.9057 4.4704.4832-2.4971h.0177l.4807 2.4971h-.9816ZM32.9497 45.9607h-.0177l-1.4824-4.15h-.9436v6.8887h.9815V44.557h.0203l1.5001 4.1424h.9233v-6.8887h-.9815v4.15ZM38.9476 41.8107l-.7893 2.7387h-.0202l-.7893-2.7387h-1.0397l1.3483 3.9771v2.9116h.9816v-2.9116l1.3483-3.9771h-1.0397ZM0 50.6445h.473058v1.3274h.321275v-1.3274h.470527v-.2721H0v.2721ZM3.97672 50.3724l-.61979 1.5995h.34152l.13154-.3636h.63749l.13661.3636h.3491l-.63496-1.5995h-.34151Zm-.0506.9663.21756-.5925.21755.5925h-.43511ZM7.90793 51.3821h.36934v.206c-.10786.0865-.24151.1339-.37946.1348-.06451.0036-.12895-.0084-.18793-.0349-.05897-.0266-.11077-.0669-.15105-.1177-.08481-.1218-.12666-.2686-.1189-.417 0-.356.15431-.534.46041-.534.08057-.0081.16134.0132.2277.0598.06635.0466.1139.1156.13405.1944l.31622-.061c-.0683-.3128-.29345-.4704-.67797-.4704-.20566-.0055-.40564.0682-.55907.206-.08058.0795-.14293.1758-.18269.2821-.03976.1063-.05597.22-.04751.3332-.00932.2189.06386.4332.20491.6002.07836.0808.17322.1435.27803.1839.10482.0404.21709.0574.3291.05.25027.007.49341-.0842.67797-.2543v-.6306h-.69315v.2695ZM11.9226 50.3724h-.3238v1.5995h1.1206v-.2721h-.7968v-1.3274ZM15.3175 50.3724h-.3238v1.5995h.3238v-1.5995ZM18.6365 51.4405l-.6552-1.0681h-.3137v1.5995h.301v-1.0451l.6426 1.0451h.3213v-1.5995h-.296v1.0681ZM21.6368 51.2675h.7969v-.2721h-.7969v-.3509h.8576v-.2721H21.313v1.5995h1.2143v-.2721h-.8905v-.4323ZM28.9122 51.0031h-.6299v-.6307h-.3212v1.5995h.3212v-.6993h.6299v.6993h.3213v-1.5995h-.3213v.6307ZM31.9302 51.2675h.7994v-.2721h-.7994v-.3509h.8601v-.2721h-1.1814v1.5995h1.2117v-.2721h-.8904v-.4323ZM36.0233 51.2676c.2782-.0432.4199-.1907.4199-.445.0081-.068-.0022-.137-.0298-.1996-.0276-.0627-.0715-.1167-.1271-.1564-.1448-.0728-.3064-.1052-.468-.0941h-.6779v1.5995h.3213v-.6688h.0632c.0685-.0042.137.008.1998.0356.047.029.0861.0691.1139.117l.3491.5086h.3845l-.1948-.3128c-.0861-.1544-.2075-.286-.3541-.384Zm-.3239-.2212h-.2377v-.4018h.2529c.1102-.0089.2211.004.3264.0381.0234.0207.0418.0464.054.0752.0122.0288.0177.06.0163.0913-.0015.0312-.0099.0618-.0247.0893-.0148.0275-.0356.0514-.0608.0697-.1056.0324-.2162.0453-.3264.0382ZM39.1096 51.2675h.7968v-.2721h-.7968v-.3509h.8601v-.2721h-1.1839v1.5995H40v-.2721h-.8904v-.4323Z" fill="#AFB1B8"/></svg>