<svg width="63" height="47" fill="none" xmlns="http://www.w3.org/2000/svg"><path d="M4.7569 38.7352c.24368.2762.37348.622.36668.977.01243.2315-.03218.4627-.13054.6763-.09835.2136-.24793.4042-.43765.5578-.47338.3273-1.05984.4873-1.6517.4506H0v-6.1914h2.84423c.56143-.0342 1.1184.1112 1.57572.4113.18368.1408.32913.3187.42487.5197.09573.2011.13914.4197.1268.6388.01669.3415-.10047.6773-.33034.9467-.22069.246-.52568.4165-.86549.4839.38522.0644.73294.252.98111.5293Zm-3.40581-.9346h1.21565c.27629.0187.55069-.0543.773-.2057.09127-.0757.16229-.1697.20754-.2746.04526-.1049.06354-.2179.05343-.3303.00858-.112-.01008-.2243-.05464-.329-.04456-.1046-.1139-.1988-.20303-.2759-.22896-.1557-.51189-.2298-.79612-.2087H1.35109v1.6242Zm2.10757 2.3744c.09757-.0776.17426-.1747.22411-.2838.04985-.1091.07151-.2273.06329-.3454.00744-.1194-.01521-.2388-.06618-.3489-.05098-.1101-.12893-.2081-.22783-.2862-.23784-.1615-.53035-.2408-.82585-.2239H1.35109v1.7029h1.29163c.29073.0154.5785-.0604.81594-.2147ZM10.5709 41.3969l-1.58233-2.4197h-.59461v2.4197h-1.361v-6.1914h2.57665c.64949-.0415 1.29159.1469 1.79379.5263.3601.336.5774.7788.6125 1.2485.0351.4697-.1141.9355-.4209 1.3134-.3179.3334-.7522.5557-1.2289.6291l1.6847 2.4741h-1.4799Zm-2.17694-3.2636h1.11325c.77299 0 1.15949-.3125 1.15949-.9376.0079-.1276-.0133-.2554-.0622-.3752-.0489-.1197-.1245-.2289-.2219-.3205-.2443-.186-.55886-.2762-.87539-.251H8.38075l.01321 1.8843ZM18.0102 40.1506h-2.7121l-.479 1.2462H13.392l2.4908-6.1219h1.5427l2.4808 6.1219h-1.427l-.4691-1.2462Zm-.3634-.9376-.991-2.6133-.991 2.6133h1.982ZM27.3224 41.3969h-1.3511l-3.0292-4.2103v4.2103h-1.3478v-6.1915h1.3478l3.0292 4.2346v-4.2346h1.3511v6.1915ZM35.0326 39.9149c-.2794.4674-.705.8477-1.2223 1.0919-.5881.272-1.2408.406-1.8994.3902H29.506v-6.1915h2.4049c.6575-.0157 1.3093.1151 1.8994.3811.5172.2387.9433.6151 1.2223 1.0798.2781.5036.423 1.0599.423 1.6242s-.1449 1.1207-.423 1.6243Zm-1.546-.1482c.3856-.4113.5976-.9355.5976-1.4776 0-.542-.212-1.0662-.5976-1.4775-.4661-.3726-1.0739-.5617-1.6914-.5263h-.9381v4.0077h.9381c.6175.0353 1.2253-.1538 1.6914-.5263ZM18.8558.766724S36.2945 6.79486 35.9245 15.518v14.7542S18.4991 24.2411 18.8624 15.518L18.8558.766724ZM51.4603 26.8181c3.2935-2.0753 7.103-3.3607 11.0796-3.7385v-4.6187c-4.582 1.617-8.469 4.5489-11.0796 8.3572Z" fill="#AFB1B8"/><path d="M49.4816 28.2095c2.6957-4.9699 7.3689-8.8049 13.0584-10.7163V4.18469S37.705 12.7717 38.2303 25.1939v21.0062s1.1066-.3841 2.8475-1.104c0-.6714 0-1.3489.0793-2.0295.514-5.767 3.5083-11.111 8.3245-14.8571Z" fill="#AFB1B8"/><path d="M47.1197 36.0131c.1305-1.4568.4216-2.8979.8688-4.3011-2.9989 3.2351-4.8151 7.2494-5.1929 11.4786-.0364.3993-.0562.7985-.0661 1.2099 1.4105-.6201 3.0523-1.3944 4.7767-2.3048-.44-2.0009-.5702-4.0485-.3865-6.0826ZM48.1075 36.0887c-.1654 1.8403-.0621 3.6926.3072 5.5079 6.7852-3.7173 14.4094-9.4611 14.1154-16.4027v-.6049c-4.8477.4966-9.3833 2.437-12.9097 5.523-.8256 1.9124-1.3355 3.9267-1.5129 5.9767Z" fill="#AFB1B8"/></svg>