<svg width="85" height="42" fill="none" xmlns="http://www.w3.org/2000/svg"><path d="M13.1462 13.1028h-.0029c-2.398 0-4.34203 1.7276-4.34203 3.8587v.0025c0 2.1311 1.94403 3.8587 4.34203 3.8587h.0029c2.398 0 4.342-1.7276 4.342-3.8587v-.0025c0-2.1311-1.944-3.8587-4.342-3.8587ZM45.195 11.8693c-.0068-2.96001-1.3327-5.79707-3.6876-7.89035-2.3549-2.09327-5.547-3.272278-8.8777-3.278999-3.3317.005377-6.5252 1.183789-8.8813 3.277209-2.3562 2.09342-3.6829 4.93125-3.6897 7.89214v16.3228s25.1335-2.4877 25.1363-16.3203v-.0025ZM0 33.5495c.00604098 2.0596.929149 4.0333 2.56761 5.4899 1.63846 1.4566 3.85907 2.2776 6.17657 2.2837 2.31702-.0061 4.53722-.8268 6.17552-2.2828 1.6384-1.456 2.5619-3.4291 2.5687-5.4883V22.1943S0 23.9266 0 33.5495Zm8.74418 2.0349c-.45288 0-.89559-.1193-1.27215-.3429-.37655-.2236-.67004-.5414-.84335-.9133-.17331-.3718-.21866-.781-.1303-1.1757.08835-.3948.30643-.7574.62667-1.042.32023-.2846.72823-.4784 1.17241-.5569.44418-.0785.90458-.0382 1.32299.1158.41845.154.77605.4149 1.02765.7495.2516.3346.3859.7281.3859 1.1306.0011.2678-.0573.5333-.1718.7811-.1146.2477-.2831.473-.4958.6627-.2128.1898-.46559.3404-.74396.4431-.27838.1028-.57683.1557-.87826.1557v-.0077ZM26.4177 34.4637h-1.6875v1.7432h-.8789v-4.2656h2.7773v.7119h-1.8984v1.1016h1.6875v.7089Zm4.2246-.2929c0 .4199-.0742.7881-.2227 1.1045-.1484.3164-.3613.5605-.6387.7324-.2753.1719-.5918.2578-.9492.2578-.3535 0-.6689-.085-.9463-.2549-.2773-.1699-.4922-.4121-.6445-.7265-.1523-.3164-.2295-.6797-.2314-1.0899v-.2109c0-.4199.0752-.7891.2255-1.1074.1524-.3204.3663-.5655.6416-.7354.2774-.1719.5938-.2578.9493-.2578.3554 0 .6709.0859.9463.2578.2773.1699.4912.415.6416.7354.1523.3183.2285.6865.2285 1.1044v.1905Zm-.8907-.1934c0-.4472-.08-.7871-.2402-1.0195-.1601-.2324-.3887-.3486-.6855-.3486-.295 0-.5225.1152-.6827.3457-.1601.2285-.2412.5644-.2431 1.0078v.208c0 .4355.0801.7734.2402 1.0136.1602.2403.3906.3604.6914.3604.2949 0 .5215-.1152.6797-.3457.1582-.2324.2383-.5703.2402-1.0137v-.208Zm3.7413 1.1104c0-.166-.0586-.293-.1758-.3809-.1172-.0898-.3281-.1836-.6328-.2812-.3047-.0997-.5459-.1973-.7237-.293-.4843-.2617-.7265-.6143-.7265-1.0576 0-.2305.0644-.4356.1933-.6153.1309-.1816.3174-.3232.5596-.4248.2441-.1015.5176-.1523.8203-.1523.3047 0 .5762.0557.8145.167.2382.1094.4228.2646.5537.4658.1328.2012.1992.4297.1992.6855h-.8789c0-.1953-.0615-.3466-.1846-.4541-.123-.1093-.2959-.164-.5185-.164-.2149 0-.3819.0459-.501.1377-.1192.0898-.1787.209-.1787.3574 0 .1387.0693.2549.208.3486.1406.0938.3467.1817.6181.2637.5.1504.8643.3369 1.0928.5596.2285.2226.3428.5.3428.832 0 .3691-.1397.6592-.419.8701-.2792.209-.6552.3135-1.1279.3135-.3281 0-.6269-.0596-.8965-.1787-.2695-.1211-.4756-.2861-.6181-.4951-.1407-.209-.211-.4512-.211-.7266h.8819c0 .4707.2812.7061.8437.7061.209 0 .3721-.042.4893-.126.1172-.0859.1758-.2051.1758-.3574Zm4.6904-2.4346h-1.3067v3.5537h-.8789v-3.5537h-1.289v-.7119h3.4746v.7119Zm3.0703 1.7051h-1.6875v1.1426h1.9805v.706h-2.8594v-4.2656h2.8535v.7119h-1.9746v1.0166h1.6875v.6885Zm2.3877.2871h-.7002v1.5615h-.8789v-4.2656h1.585c.5039 0 .8925.1123 1.166.3369.2734.2246.4101.542.4101.9521 0 .2911-.0634.5342-.1904.7295-.125.1934-.3154.3477-.5713.4629l.9229 1.7432v.041h-.9434l-.7998-1.5615Zm-.7002-.7119h.709c.2207 0 .3916-.0557.5127-.167.1211-.1133.1816-.2686.1816-.4658 0-.2012-.0576-.3594-.1728-.4747-.1133-.1152-.2881-.1728-.5244-.1728h-.7061v1.2803Zm5.3262.7705v1.5029h-.8789v-4.2656h1.664c.3203 0 .6016.0586.8438.1758.2441.1172.4316.2841.5625.5009.1308.2149.1963.46.1963.7354 0 .418-.1436.748-.4307.9902-.2852.2403-.6807.3604-1.1865.3604h-.7705Zm0-.7119h.7851c.2325 0 .4092-.0547.5303-.1641.123-.1094.1846-.2656.1846-.4687 0-.209-.0616-.378-.1846-.5069-.123-.1289-.293-.1953-.5098-.1992h-.8056v1.3389Zm5.5605.3662h-1.6875v1.1426h1.9805v.706h-2.8594v-4.2656h2.8535v.7119h-1.9746v1.0166h1.6875v.6885Zm4.0781-1.7051h-1.3066v3.5537h-.8789v-3.5537h-1.2891v-.7119h3.4746v.7119Zm3.0704 1.7051h-1.6875v1.1426h1.9804v.706h-2.8593v-4.2656h2.8535v.7119h-1.9746v1.0166h1.6875v.6885Zm2.3877.2871h-.7002v1.5615h-.8789v-4.2656h1.5849c.5039 0 .8926.1123 1.166.3369.2735.2246.4102.542.4102.9521 0 .2911-.0635.5342-.1904.7295-.125.1934-.3155.3477-.5713.4629l.9228 1.7432v.041h-.9433l-.7998-1.5615Zm-.7002-.7119h.7089c.2207 0 .3916-.0557.5127-.167.1211-.1133.1817-.2686.1817-.4658 0-.2012-.0576-.3594-.1729-.4747-.1133-.1152-.2881-.1728-.5244-.1728h-.706v1.2803Zm5.165 1.1543c0-.166-.0586-.293-.1758-.3809-.1172-.0898-.3281-.1836-.6328-.2812-.3047-.0997-.5459-.1973-.7236-.293-.4844-.2617-.7266-.6143-.7266-1.0576 0-.2305.0645-.4356.1934-.6153.1308-.1816.3173-.3232.5595-.4248.2442-.1015.5176-.1523.8203-.1523.3047 0 .5762.0557.8145.167.2383.1094.4229.2646.5537.4658.1328.2012.1992.4297.1992.6855h-.8789c0-.1953-.0615-.3466-.1845-.4541-.1231-.1093-.2959-.164-.5186-.164-.2148 0-.3818.0459-.501.1377-.1191.0898-.1787.209-.1787.3574 0 .1387.0693.2549.208.3486.1406.0938.3467.1817.6182.2637.5.1504.8642.3369 1.0928.5596.2285.2226.3427.5.3427.832 0 .3691-.1396.6592-.4189.8701-.2793.209-.6553.3135-1.1279.3135-.3282 0-.627-.0596-.8965-.1787-.2696-.1211-.4756-.2861-.6182-.4951-.1406-.209-.2109-.4512-.2109-.7266h.8818c0 .4707.2813.7061.8438.7061.2089 0 .372-.042.4892-.126.1172-.0859.1758-.2051.1758-.3574Z" fill="#2196F3"/></svg>