<svg width="45" height="42" fill="none" xmlns="http://www.w3.org/2000/svg"><path d="M7.40622 41.1014c.01591.0004.03158.0035.04609.0092.01452.0057.02758.0139.03843.024l.21811.2085c-.1693.1687-.37856.3037-.61345.3957-.27507.1003-.57152.1487-.86975.1421-.28023.005-.55866-.0401-.81794-.1327-.23388-.085-.44401-.2126-.61618-.3743-.17571-.1677-.31105-.3643-.39806-.5781-.09529-.2384-.14234-.4893-.13905-.7416-.00387-.2539.04699-.5062.14995-.7439.09525-.2152.23892-.4117.42261-.5781.18617-.1631.40888-.2914.65435-.3767.26853-.0905.55449-.1355.84248-.1327.26751-.0056.5336.0354.78249.1208.21594.0814.41422.1944.5862.3341l-.18268.2227c-.01262.0157-.0283.0293-.04635.0403-.02155.0128-.0476.0187-.07361.0166-.0283-.0017-.05558-.0099-.07907-.0237l-.09815-.0593-.13633-.0758c-.05885-.0281-.11988-.0527-.18267-.0734-.08087-.0252-.16381-.045-.24811-.0592-.10699-.0172-.21567-.0251-.32445-.0237-.20738-.0023-.41318.0315-.60528.0995-.17914.0629-.34085.1582-.4744.2795-.13595.1291-.24072.2806-.30809.4455-.07679.1886-.11463.3875-.11179.5875-.00327.2032.03457.4053.11179.5971.06653.1634.16935.314.30264.443.12487.1203.27966.2143.45259.2749.17797.0641.369.0963.56165.0947.11129.0015.22253-.0048.33263-.0189.17979-.0191.35225-.0734.5044-.1588.07631-.0437.14835-.0928.21539-.1469.02803-.0232.06489-.0367.10361-.0379ZM13.7043 40.0538c.0034.2514-.0465.5011-.1472.7368-.0889.2137-.2288.4087-.4107.572-.1819.1634-.4015.2914-.6444.3756-.5338.1769-1.1239.1769-1.6577 0-.2414-.0855-.4596-.2138-.6407-.3767-.1818-.1663-.32277-.3629-.41445-.578-.19641-.4772-.19641-.9988 0-1.4759.09301-.2153.23385-.4125.41445-.5805.1826-.1577.4007-.2811.6407-.3624.5331-.1801 1.1245-.1801 1.6577 0 .2422.0855.4613.2137.6434.3767.1795.1646.3194.3587.4117.5709.101.2372.1509.4886.1472.7415Zm-.5725 0c.0043-.2011-.0308-.4013-.1036-.5923-.0611-.1635-.1605-.3143-.2918-.443-.1278-.1217-.2852-.2172-.4607-.2795-.3879-.1295-.8173-.1295-1.2051 0-.1756.0623-.333.1578-.4608.2795-.1331.1279-.2335.2789-.2944.443-.1388.3857-.1388.7989 0 1.1846.0615.1639.1618.3148.2944.443.128.121.2854.2157.4608.2772.3885.1262.8165.1262 1.2051 0 .1753-.0615.3327-.1562.4607-.2772.1308-.129.23-.2797.2918-.443.0731-.1909.1082-.3912.1036-.5923ZM18.0013 40.6747l.0572.1327c.0218-.0474.0409-.0901.0627-.1327.0208-.0445.0445-.088.0709-.1303l1.3932-2.2006c.0273-.0379.0518-.0615.0791-.0687.0371-.0098.0758-.0138.1145-.0118h.4117v3.5792h-.488v-2.743c-.0027-.041-.0027-.0822 0-.1232l-1.4014 2.2314c-.0178.0334-.0463.0617-.0821.0814-.0358.0198-.0773.0301-.1197.0299h-.0791c-.0424.0005-.0841-.0097-.12-.0295-.0358-.0198-.0642-.0482-.0817-.0818l-1.4423-2.2456v2.8733h-.4717v-3.5721h.4117c.0387-.002.0774.002.1145.0118.0338.0146.0608.0389.0764.0687l1.4232 2.203c.0279.0407.0517.0835.0709.1279ZM23.2443 40.4969v1.3407h-.5453v-3.5744h1.216c.2295-.0038.4584.0225.6789.0781.1765.0435.3401.1194.4798.2227.1211.0968.2145.2168.2727.3506.0643.1458.0958.301.0927.4571.0024.1568-.0319.3123-.1009.4572-.0656.1371-.1663.2595-.2945.3577-.1399.1075-.3043.1883-.4825.2368-.2123.059-.4343.087-.6571.0829l-.6598-.0094Zm0-.3838h.6598c.1433.0017.286-.0167.4226-.0544.1127-.033.2165-.0854.3053-.154.082-.0656.1454-.1466.1854-.2369.0447-.0955.0669-.1977.0655-.3008.0063-.0994-.0123-.1987-.0547-.2912-.0424-.0924-.1075-.1758-.1907-.2441-.2083-.1413-.4699-.2098-.7334-.1919h-.6598v1.4733ZM30.573 41.8424h-.4308c-.0432.0014-.0856-.0103-.1199-.0332-.031-.0223-.0553-.0507-.0709-.0829l-.3708-.8647h-1.8622l-.3844.8647c-.0142.0316-.0377.0594-.0682.0806-.0346.0242-.0782.0368-.1227.0355h-.4308l1.6359-3.5796h.5671l1.6577 3.5796Zm-2.6992-1.329h1.5377l-.6489-1.457c-.0496-.1096-.0905-.222-.1226-.3364l-.0628.1872c-.019.0568-.0409.109-.0599.1516l-.6435 1.4546ZM32.9287 38.2795c.0326.0155.0606.0374.0818.0639l2.3857 2.6983V38.2629h.488v3.5795h-.2726c-.0388.001-.0772-.0063-.1118-.0213-.0337-.0171-.0633-.0396-.0873-.0663l-2.3829-2.6959c.0026.041.0026.0821 0 .1232V41.8424h-.488v-3.5795h.289c.0337-.0008.0672.0048.0981.0166ZM39.903 40.4188v1.4214h-.5453v-1.4214L37.85 38.2631h.488c.0421-.0022.0836.0087.1173.0307.0296.023.0545.0503.0736.0806l.9433 1.3906c.0382.0592.0709.1137.0982.1658.0273.0521.0491.1019.0682.1516l.0708-.154c.0265-.0563.0575-.1109.0927-.1634l.9298-1.4001c.0195-.0279.0434-.0534.0709-.0758.0323-.0245.0743-.0373.1172-.0355h.4935l-1.5105 2.1652ZM17.7313 32.2561c.2372.0261.4772.0474.7198.0664 3.6789-1.4299 6.791-3.7702 8.9475-6.7283 2.1565-2.9582 3.2616-6.403 3.1772-9.9038l-4.0543-3.5226c.8243 3.7273.4387 7.5804-1.1137 11.1281-1.5524 3.5478-4.2103 6.6502-7.6765 8.9602Z" fill="#AFB1B8"/><path d="m16.2836 32.0923.1091.0189c3.7039-2.3018 6.5278-5.5161 8.1065-9.2273 1.5787-3.7112 1.8396-7.7486.7491-11.59l-5.7747-5.01717c2.3357 4.12407 3.2759 8.73947 2.7111 13.30947-.5647 4.57-2.611 8.9068-5.9011 12.5061ZM35.8679 19.8265c-.9811 3.8466-3.3639 7.3158-6.7944 9.8924-1.0019.7566-2.0826 1.4307-3.2282 2.0135 2.7935-.7134 5.3611-1.9746 7.5049-3.6864 2.1437-1.7119 3.8064-3.8286 4.8597-6.187l-2.342-2.0325Z" fill="#AFB1B8"/><path d="m34.949 19.2601-3.3344-2.8972c-.0638 3.3031-1.1446 6.5311-3.1301 9.3485-1.9855 2.8173-4.8032 5.1213-8.1603 6.6723h.0164c.7481-.0002 1.4956-.039 2.2384-.1161 3.1374-1.1126 5.909-2.8827 8.0674-5.1524 2.1585-2.2697 3.6366-4.9683 4.3026-7.8551ZM16.7662 4.16091 12.7883.699951C9.23216 1.89391 6.17374 3.99283 4.01331 6.72203 1.85288 9.45122.691089 12.6835.679993 15.9959.693321 19.656 2.1112 23.2077 4.70923 26.0888 7.30725 28.9699 10.937 31.016 15.024 31.903c3.6484-3.862 5.7845-8.6343 6.0978-13.6232.3133-4.989-1.2124-9.93485-4.3556-14.11889ZM44.14 18.7273c-.0144-4.3425-2.0062-8.5035-5.5404-11.57412-3.5341-3.07061-8.3233-4.80119-13.3213-4.81369-2.3096-.00208-4.5995.3682-6.7535 1.09204L42.8804 24.5926c.8339-1.8705 1.261-3.8593 1.2596-5.8653Z" fill="#AFB1B8"/></svg>