<svg width="20" height="20" fill="none" xmlns="http://www.w3.org/2000/svg"><g clip-path="url(#a)" fill="#AFB1B8"><path d="M19.9804 5.88005c-.0468-1.06267-.2187-1.79325-.4648-2.42631-.254-.67198-.6447-1.2736-1.1566-1.77372-.5001-.50792-1.1057-.902585-1.7699-1.152573-.6367-.246173-1.3635-.41802-2.4261-.4648738C13.0924.0117516 12.7525 0 10.0371 0 7.32173 0 6.98185.0117516 5.91521.0586052 4.85253.105459 4.12195.277459 3.48904.523479 2.81692.777435 2.2153 1.16814 1.71517 1.68002c-.50791.50012-.902427 1.10571-1.152567 1.7699C.31643 4.0868.144583 4.81341.0977294 5.87609.0469078 6.9467.0351562 7.28658.0351562 10.002c0 2.7153.0117516 3.0552.0586052 4.1219.0468536 1.0626.2188536 1.7932.4650256 2.4263.253956.6719.648473 1.2736 1.156383 1.7737.50013.5079 1.10571.9026 1.76991 1.1526.63687.2461 1.36348.418 2.42631.4648 1.06649.047 1.40652.0586 4.12191.0586 2.7154 0 3.0552-.0116 4.1219-.0586 1.0627-.0468 1.7932-.2187 2.4261-.4648 1.3441-.5197 2.4068-1.5824 2.9265-2.9263.246-.6369.418-1.3637.4649-2.4263.0468-1.0667.0586-1.4066.0586-4.1219 0-2.71542-.004-3.0553-.0509-4.12195Zm-1.801 8.16565c-.043.9768-.2071 1.5042-.3438 1.8558-.3361.8713-1.0276 1.5628-1.8989 1.8989-.3516.1368-.8829.3008-1.8558.3437-1.0549.047-1.3713.0586-4.0398.0586-2.66855 0-2.98889-.0116-4.03997-.0586-.97675-.0429-1.5042-.2069-1.85583-.3437-.43359-.1602-.82826-.4142-1.1486-.7463-.3321-.3243-.58605-.715-.7463-1.1486-.13675-.3516-.30081-.883-.34369-1.8558-.04701-1.0549-.05861-1.3714-.05861-4.04 0-2.66848.0116-2.98883.05861-4.03975.04288-.97676.20694-1.5042.34369-1.85583.16025-.43374.4142-.82826.75027-1.14876.32416-.33209.71486-.58605 1.1486-.74615.35163-.13674.88304-.30081 1.85583-.34384 1.05489-.04686 1.37142-.05861 4.0398-.05861 2.6725 0 2.9888.01175 4.0399.05861.9768.04303 1.5042.2071 1.8559.34384.4335.1601.8282.41406 1.1486.74615.332.32431.586.71502.7463 1.14876.1367.35163.3008.88289.3438 1.85583.0469 1.05489.0586 1.37127.0586 4.03975 0 2.6686-.0117 2.9811-.0586 4.036Z"/><path d="M10.0371 4.8642c-2.83636 0-5.13769 2.30117-5.13769 5.1377 0 2.8366 2.30133 5.1377 5.13769 5.1377 2.8366 0 5.1378-2.3011 5.1378-5.1377 0-2.83653-2.3012-5.1377-5.1378-5.1377Zm0 8.4704c-1.84008 0-3.33268-1.4924-3.33268-3.3327 0-1.84025 1.4926-3.33269 3.33268-3.33269 1.8403 0 3.3327 1.49244 3.3327 3.33269 0 1.8403-1.4924 3.3327-3.3327 3.3327ZM16.5775 4.6611c0 .66236-.5371 1.19942-1.1996 1.19942-.6624 0-1.1994-.53706-1.1994-1.19942 0-.66252.537-1.19943 1.1994-1.19943.6625 0 1.1996.53691 1.1996 1.19943Z"/></g><defs><clipPath id="a"><path fill="#fff" d="M0 0h20v20H0z"/></clipPath></defs></svg>