<svg width="20" height="20" fill="none" xmlns="http://www.w3.org/2000/svg"><g clip-path="url(#a)" fill="#AFB1B8"><path d="M19.995 20v-.0008H20v-7.335c0-3.58833-.7725-6.35249-4.9675-6.35249-2.0167 0-3.37 1.10666-3.9225 2.15583h-.0583V6.64671H7.07416V19.9992h4.14164v-6.6117c0-1.7408.33-3.42413 2.4859-3.42413 2.1241 0 2.1558 1.98663 2.1558 3.53583V20h4.1375ZM.330017 6.64746H4.47668V20H.330017V6.64746ZM2.40167 0C1.07583 0 0 1.07583 0 2.40167 0 3.7275 1.07583 4.82583 2.40167 4.82583c1.32583 0 2.40166-1.09833 2.40166-2.42416C4.8025 1.07583 3.72667 0 2.40167 0Z"/></g><defs><clipPath id="a"><path fill="#fff" d="M0 0h20v20H0z"/></clipPath></defs></svg>