<svg width="20" height="20" fill="none" xmlns="http://www.w3.org/2000/svg"><g clip-path="url(#a)"><path d="M20 3.79875c-.7437.32625-1.5363.5425-2.3625.6475.85-.5075 1.4988-1.305 1.8037-2.26625-.7924.4725-1.6674.80625-2.6.9925-.7525-.80125-1.825-1.2975-2.995-1.2975-2.2699 0-4.09745 1.8425-4.09745 4.10125 0 .325.0275.6375.095.935-3.40875-.16625-6.425-1.8-8.45125-4.28875-.35375.61375-.56125 1.31625-.56125 2.0725 0 1.42.73125 2.67875 1.82125 3.4075C1.99375 8.09 1.3475 7.89875.8 7.5975v.045c0 1.9925 1.42125 3.6475 3.285 4.0287-.33375.0913-.6975.135-1.075.135-.2625 0-.5275-.0149-.77625-.07C2.765 13.36 4.2725 14.5538 6.065 14.5925 4.67 15.6838 2.89875 16.3412.98125 16.3412.645 16.3412.3225 16.3263 0 16.285c1.81625 1.1713 3.96875 1.84 6.29 1.84 7.545 0 11.67-6.25 11.67-11.6675 0-.18125-.0062-.35625-.015-.53.8138-.5775 1.4975-1.29875 2.055-2.12875Z" fill="#AFB1B8"/></g><defs><clipPath id="a"><path fill="#fff" d="M0 0h20v20H0z"/></clipPath></defs></svg>